<svg xmlns="http://www.w3.org/2000/svg" width="2107.211" height="1116.875" viewBox="0 0 2107.211 1116.875"><linearGradient id="a" gradientUnits="userSpaceOnUse" x1="999.139" y1="175.522" x2="999.139" y2="1105.521"><stop offset=".012" stop-color="#fff"/><stop offset=".224" stop-color="#9CDAED"/><stop offset=".338" stop-color="#99D6EB"/><stop offset=".427" stop-color="#91CCE6"/><stop offset=".508" stop-color="#82BEDF"/><stop offset=".584" stop-color="#6FAAD6"/><stop offset=".656" stop-color="#5793CA"/><stop offset=".725" stop-color="#377BBD"/><stop offset=".77" stop-color="#106BB5"/></linearGradient><path fill="url(#a)" stroke="#000" stroke-width="7" stroke-miterlimit="10" d="M1318.64 685.602c0 236.252-143.044 427.773-319.5 427.773s-319.5-191.52-319.5-427.773c0-42.612 4.652-83.768 13.315-122.608C732.327 386.494 980.29 35.522 999.14 6.264c0 0 269.31 382.876 307.364 562.163 7.905 37.237 12.135 76.545 12.135 117.175z"/><path fill="#00AEEF" stroke="#000" stroke-width="7" stroke-miterlimit="10" d="M416.29 595.477c0 46.875-26.047 83.328-78.125 109.328C286.07 730.82 216.4 743.82 129.118 743.82c-40.516 0-73.797-2.233-99.828-6.687V690.82c25.984 7.344 59.687 11 101.094 11 109.266 0 163.906-35.344 163.906-106.047V341.82h122v253.657zM759.075 742.062V431.548h252.713c76.793 0 137.697 6.56 182.71 19.677 45.01 13.118 67.52 30.204 67.52 51.245 0 17.59-13.634 32.87-40.897 45.84s-64.858 22.195-112.77 27.674v.872c59.78 2.457 107.613 10.38 143.482 23.743 35.87 13.363 53.807 30.743 53.807 52.14 0 26.592-27.237 48.125-81.712 64.608-54.475 16.484-123.17 24.713-206.11 24.713H759.074zm104.35-277.497V564.4h106.57c56.987 0 101.8-4.777 134.437-14.333 32.637-9.557 48.955-23.043 48.955-40.435 0-30.044-56.8-45.066-170.388-45.066H863.425zm0 132.853v111.628h141.105c61.064 0 108.416-5.048 142.04-15.145 33.626-10.096 50.44-23.938 50.44-41.528 0-36.628-71.38-54.954-214.145-54.954h-119.44zM2068.786 736.82h-539v-395h122v353h417v42z"/><path fill="none" d="M7 877.258h2100.21v171.11H7z"/><path fill="#00AEEF" stroke="#000" stroke-width="7" stroke-miterlimit="10" d="M200.946 877.344l-21.783 149.835h-61.08c-5.592-23.02-10.527-49.212-14.807-78.574-1.952 12.59-6.5 38.78-13.645 78.573H28.9L7 877.343h47.528l5.17 52.28 4.998 50.54c1.805-26.154 6.313-60.428 13.527-102.82h50.8c.677 4.382 2.454 20.855 5.337 49.42l5.404 57.01c2.78-36.27 7.333-71.746 13.654-106.43h47.528zM337.108 877.344l27.977 149.835h-49.997l-2.625-26.933h-17.5l-2.94 26.932h-50.58L266.4 877.343h70.708zm-25.928 96.343c-2.477-16.972-4.96-37.948-7.452-62.933-4.984 28.69-8.114 49.67-9.39 62.933h16.842zM513.885 877.344v29.985h-29.05v119.85H435.91V907.33h-28.935v-29.985h106.908zM566.99 877.344h81.576v29.985h-32.653v28.41h30.562v28.506h-30.562v32.947h35.907v29.985h-84.83V877.344zM707.83 877.344h34.63c23.084 0 38.713.71 46.888 2.13 8.172 1.42 14.834 5.043 19.987 10.873 5.15 5.83 7.728 15.132 7.728 27.903 0 11.66-1.82 19.497-5.46 23.507-3.644 4.012-10.808 6.418-21.5 7.22 9.684 1.912 16.19 4.474 19.523 7.68 3.33 3.21 5.403 6.155 6.217 8.84.813 2.684 1.22 10.073 1.22 22.165v39.518h-45.436v-49.79c0-8.02-.795-12.987-2.382-14.9-1.588-1.912-5.752-2.87-12.492-2.87v67.56H707.83V877.345zm48.922 25.636v33.317c5.5 0 9.354-.602 11.562-1.805 2.208-1.203 3.312-5.104 3.312-11.707v-8.237c0-4.75-1.066-7.866-3.196-9.347-2.13-1.48-6.024-2.22-11.678-2.22zM877.954 877.344h49.27c13.324 0 23.57.833 30.737 2.5 7.166 1.665 12.55 4.07 16.154 7.218 3.602 3.146 6.042 6.957 7.32 11.43 1.28 4.474 1.918 11.4 1.918 20.776v13.05c0 9.564-1.24 16.535-3.72 20.916-2.48 4.38-7.03 7.743-13.653 10.087-6.625 2.347-15.282 3.52-25.973 3.52h-13.13v60.34h-48.923V877.344zm48.922 25.636v38.13c1.394.062 2.594.093 3.602.093 4.492 0 7.61-.88 9.354-2.638 1.743-1.76 2.615-5.414 2.615-10.967v-12.31c0-5.12-1.008-8.452-3.02-9.995-2.016-1.54-6.2-2.313-12.55-2.313zM1039.362 877.344h34.63c23.084 0 38.713.71 46.89 2.13 8.17 1.42 14.833 5.043 19.985 10.873 5.15 5.83 7.73 15.132 7.73 27.903 0 11.66-1.823 19.497-5.464 23.507-3.643 4.012-10.807 6.418-21.498 7.22 9.684 1.912 16.19 4.474 19.523 7.68 3.33 3.21 5.402 6.155 6.217 8.84.812 2.684 1.22 10.073 1.22 22.165v39.518h-45.436v-49.79c0-8.02-.796-12.987-2.383-14.9-1.588-1.912-5.752-2.87-12.492-2.87v67.56h-48.922V877.345zm48.922 25.636v33.317c5.5 0 9.354-.602 11.562-1.805 2.208-1.203 3.312-5.104 3.312-11.707v-8.237c0-4.75-1.066-7.866-3.196-9.347-2.13-1.48-6.024-2.22-11.678-2.22zM1321.275 965.08c0 15.055-.446 25.714-1.336 31.976-.893 6.263-3.682 11.984-8.368 17.167-4.688 5.183-11.02 9.162-19 11.94-7.98 2.776-17.275 4.164-27.89 4.164-10.07 0-19.114-1.312-27.133-3.934-8.02-2.62-14.468-6.555-19.35-11.8-4.88-5.243-7.785-10.95-8.715-17.12-.93-6.17-1.394-16.968-1.394-32.393v-25.636c0-15.054.445-25.712 1.337-31.976.89-6.26 3.68-11.984 8.367-17.167 4.686-5.182 11.02-9.16 19-11.937 7.978-2.776 17.273-4.165 27.888-4.165 10.07 0 19.116 1.312 27.135 3.934 8.018 2.623 14.467 6.557 19.348 11.8 4.88 5.244 7.786 10.952 8.715 17.12.93 6.17 1.395 16.97 1.395 32.393v25.635zm-48.922-49.236c0-6.972-.484-11.43-1.452-13.373-.97-1.942-2.963-2.914-5.984-2.914-2.556 0-4.514.786-5.868 2.36-1.356 1.572-2.033 6.216-2.033 13.928v69.966c0 8.7.444 14.067 1.336 16.104.89 2.036 2.965 3.054 6.218 3.054 3.33 0 5.462-1.17 6.392-3.517.93-2.343 1.395-7.926 1.395-16.75v-68.856zM1493.258 965.08c0 15.055-.446 25.714-1.336 31.976-.892 6.263-3.68 11.984-8.367 17.167-4.688 5.183-11.02 9.162-19 11.94-7.98 2.776-17.275 4.164-27.89 4.164-10.07 0-19.114-1.312-27.133-3.934-8.018-2.62-14.467-6.555-19.348-11.8-4.88-5.243-7.786-10.95-8.716-17.12-.93-6.17-1.394-16.968-1.394-32.393v-25.636c0-15.054.444-25.712 1.336-31.976.89-6.26 3.68-11.984 8.367-17.167 4.686-5.182 11.02-9.16 19-11.937 7.978-2.776 17.273-4.165 27.888-4.165 10.07 0 19.116 1.312 27.135 3.934 8.018 2.623 14.467 6.557 19.348 11.8 4.88 5.244 7.786 10.952 8.715 17.12.93 6.17 1.395 16.97 1.395 32.393v25.635zm-48.922-49.236c0-6.972-.484-11.43-1.452-13.373-.97-1.942-2.964-2.914-5.985-2.914-2.557 0-4.515.786-5.87 2.36-1.355 1.572-2.032 6.216-2.032 13.928v69.966c0 8.7.444 14.067 1.336 16.104.89 2.036 2.964 3.054 6.217 3.054 3.33 0 5.463-1.17 6.393-3.517.93-2.343 1.395-7.926 1.395-16.75v-68.856zM1553.453 877.344h82.854v29.985h-33.932v28.41h30.213v28.506h-30.213v62.933h-48.923V877.343zM1739.033 877.344v149.835h-48.923V877.343h48.923zM1909.854 877.344v149.835h-42.88l-25.45-68.116v68.115h-40.903V877.343h40.905l27.425 67.468v-67.468h40.904zM2083.696 932.503h-48.922V918.9c0-8.576-.465-13.943-1.395-16.104-.93-2.16-3.14-3.24-6.625-3.24-3.02 0-5.074.926-6.158 2.777-1.086 1.85-1.627 6.603-1.627 14.252v71.91c0 6.726.54 11.15 1.627 13.28 1.084 2.13 3.254 3.192 6.507 3.192 3.562 0 5.985-1.203 7.264-3.61 1.277-2.405 1.917-7.093 1.917-14.065v-17.77h-9.878v-22.767h57.29v80.424h-30.744l-4.524-10.736c-3.335 4.627-7.542 8.098-12.618 10.41-5.08 2.315-11.067 3.472-17.967 3.472-8.22 0-15.914-1.59-23.085-4.766-7.172-3.178-12.617-7.11-16.34-11.8-3.722-4.688-6.048-9.61-6.978-14.762-.93-5.15-1.394-12.88-1.394-23.184v-44.516c0-14.312.968-24.71 2.904-31.188 1.936-6.478 7.495-12.416 16.676-17.815 9.18-5.397 21.05-8.098 35.617-8.098 14.33 0 26.222 2.346 35.675 7.033 9.45 4.69 15.61 10.26 18.477 16.705 2.865 6.448 4.3 15.812 4.3 28.09v6.478z"/><path fill="#00AEEF" stroke="#00AEEF" stroke-width="16" stroke-miterlimit="10" d="M14.29 811.9h2070.002"/></svg>