<svg xmlns="http://www.w3.org/2000/svg" width="2107.211" height="1116.875" viewBox="0 0 2107.211 1116.875"><linearGradient id="a" gradientUnits="userSpaceOnUse" x1="999.139" y1="175.522" x2="999.139" y2="1105.521"><stop offset=".012" stop-color="#fff"/><stop offset=".224" stop-color="#9cdaed"/><stop offset=".338" stop-color="#99d6eb"/><stop offset=".427" stop-color="#91cce6"/><stop offset=".508" stop-color="#82bedf"/><stop offset=".584" stop-color="#6faad6"/><stop offset=".656" stop-color="#5793ca"/><stop offset=".725" stop-color="#377bbd"/><stop offset=".77" stop-color="#106bb5"/></linearGradient><path fill="url(#a)" stroke="#000" stroke-width="7" stroke-miterlimit="10" d="M1318.639 685.602c0 236.252-143.043 427.773-319.5 427.773-176.455 0-319.5-191.521-319.5-427.773 0-42.612 4.653-83.768 13.316-122.608C732.327 386.493 980.29 35.522 999.139 6.265c0 0 269.31 382.875 307.365 562.162 7.905 37.237 12.135 76.545 12.135 117.175z"/><path fill="#00AEEF" stroke="#000" stroke-width="7" stroke-miterlimit="10" d="M416.29 595.477c0 46.875-26.047 83.328-78.125 109.328-52.094 26.016-121.766 39.016-209.047 39.016-40.516 0-73.797-2.234-99.828-6.688V690.82c25.984 7.344 59.687 11 101.094 11 109.266 0 163.906-35.344 163.906-106.047V341.82h122v253.657zm342.785 146.585V431.548h252.713c76.793 0 137.697 6.559 182.709 19.677 45.012 13.118 67.52 30.204 67.52 51.245 0 17.589-13.633 32.869-40.896 45.84s-64.859 22.195-112.771 27.674v.872c59.779 2.457 107.613 10.379 143.482 23.743 35.871 13.364 53.807 30.744 53.807 52.141 0 26.592-27.236 48.125-81.711 64.608-54.475 16.484-123.17 24.713-206.111 24.713H759.075zm104.351-277.497v99.836h106.569c56.987 0 101.8-4.778 134.437-14.334 32.637-9.557 48.955-23.043 48.955-40.435 0-30.044-56.801-45.066-170.388-45.066H863.426zm0 132.853v111.628h141.104c61.064 0 108.416-5.048 142.041-15.145s50.439-23.939 50.439-41.529c0-36.628-71.381-54.954-214.145-54.954H863.426zm1205.36 139.402h-539v-395h122v353h417v42z"/><path fill="none" d="M7 877.258h2100.211v171.111H7z"/><path fill="#00AEEF" stroke="#000" stroke-width="7" stroke-miterlimit="10" d="M200.946 877.344l-21.783 149.835h-61.08c-5.592-23.02-10.527-49.211-14.807-78.573-1.952 12.59-6.5 38.78-13.645 78.573H28.899L7 877.344h47.528l5.169 52.279 4.999 50.541c1.805-26.154 6.313-60.428 13.527-102.82h50.801c.676 4.382 2.453 20.855 5.336 49.421l5.404 57.009c2.781-36.27 7.333-71.746 13.654-106.43h47.528zm136.162 0l27.977 149.835h-49.997l-2.625-26.932h-17.5l-2.941 26.932h-50.578l24.955-149.835h70.709zm-25.928 96.343c-2.477-16.972-4.96-37.948-7.452-62.933-4.984 28.691-8.114 49.669-9.389 62.933h16.841zm202.705-96.343v29.985h-29.051v119.85h-48.922V907.33h-28.935v-29.985h106.908zm53.105 0h81.576v29.985h-32.653v28.412h30.562v28.505h-30.562v32.947h35.907v29.985h-84.83V877.344zm140.84 0h34.629c23.085 0 38.714.71 46.889 2.129 8.172 1.42 14.834 5.044 19.987 10.874 5.151 5.831 7.728 15.132 7.728 27.903 0 11.661-1.821 19.497-5.461 23.507-3.643 4.012-10.807 6.418-21.498 7.219 9.683 1.913 16.19 4.475 19.522 7.682 3.33 3.209 5.403 6.154 6.217 8.839.813 2.684 1.22 10.073 1.22 22.165v39.518h-45.436v-49.791c0-8.02-.795-12.986-2.382-14.899-1.588-1.912-5.752-2.869-12.492-2.869v67.56H707.83V877.344zm48.922 25.636v33.317c5.5 0 9.354-.602 11.562-1.805 2.208-1.203 3.312-5.104 3.312-11.707v-8.237c0-4.75-1.066-7.866-3.196-9.347-2.131-1.481-6.024-2.221-11.678-2.221zm121.202-25.636h49.271c13.323 0 23.569.833 30.736 2.499 7.165 1.666 12.55 4.072 16.153 7.219 3.602 3.146 6.042 6.957 7.321 11.43 1.278 4.474 1.917 11.399 1.917 20.776v13.05c0 9.564-1.24 16.535-3.719 20.916-2.48 4.381-7.03 7.743-13.654 10.087-6.624 2.346-15.281 3.518-25.972 3.518h-13.131v60.341h-48.922V877.344zm48.922 25.636v38.13c1.394.062 2.594.093 3.602.093 4.492 0 7.611-.88 9.354-2.638 1.743-1.759 2.615-5.414 2.615-10.967v-12.31c0-5.12-1.008-8.452-3.021-9.995-2.015-1.54-6.199-2.313-12.55-2.313zm112.486-25.636h34.629c23.085 0 38.714.71 46.89 2.129 8.172 1.42 14.834 5.044 19.986 10.874 5.15 5.831 7.729 15.132 7.729 27.903 0 11.661-1.822 19.497-5.463 23.507-3.643 4.012-10.807 6.418-21.498 7.219 9.684 1.913 16.191 4.475 19.523 7.682 3.33 3.209 5.402 6.154 6.217 8.839.812 2.684 1.221 10.073 1.221 22.165v39.518h-45.437v-49.791c0-8.02-.795-12.986-2.382-14.899-1.588-1.912-5.752-2.869-12.492-2.869v67.56h-48.922V877.344zm48.922 25.636v33.317c5.5 0 9.354-.602 11.562-1.805 2.208-1.203 3.312-5.104 3.312-11.707v-8.237c0-4.75-1.066-7.866-3.196-9.347-2.131-1.481-6.024-2.221-11.678-2.221zm232.991 62.1c0 15.055-.446 25.714-1.336 31.976-.892 6.263-3.681 11.984-8.367 17.167-4.688 5.183-11.021 9.162-18.999 11.94-7.98 2.776-17.276 4.164-27.89 4.164-10.071 0-19.115-1.312-27.134-3.934-8.018-2.621-14.467-6.555-19.348-11.8-4.881-5.243-7.786-10.95-8.716-17.121-.929-6.169-1.394-16.967-1.394-32.392v-25.636c0-15.054.444-25.712 1.336-31.976.89-6.261 3.679-11.984 8.367-17.167 4.686-5.183 11.019-9.162 18.999-11.938 7.979-2.776 17.274-4.165 27.889-4.165 10.07 0 19.116 1.312 27.135 3.934 8.018 2.623 14.467 6.557 19.348 11.8 4.881 5.244 7.786 10.952 8.715 17.121.93 6.17 1.395 16.968 1.395 32.392v25.635zm-48.922-49.236c0-6.972-.484-11.43-1.452-13.373-.97-1.943-2.964-2.915-5.985-2.915-2.556 0-4.514.786-5.868 2.359-1.356 1.573-2.033 6.217-2.033 13.929v69.966c0 8.7.444 14.067 1.336 16.104.89 2.036 2.964 3.054 6.217 3.054 3.33 0 5.462-1.171 6.392-3.517.93-2.344 1.395-7.927 1.395-16.751v-68.856zm220.905 49.236c0 15.055-.446 25.714-1.336 31.976-.892 6.263-3.681 11.984-8.367 17.167-4.688 5.183-11.021 9.162-18.999 11.94-7.98 2.776-17.276 4.164-27.89 4.164-10.071 0-19.115-1.312-27.134-3.934-8.018-2.621-14.467-6.555-19.348-11.8-4.881-5.243-7.786-10.95-8.716-17.121-.929-6.169-1.394-16.967-1.394-32.392v-25.636c0-15.054.444-25.712 1.336-31.976.89-6.261 3.679-11.984 8.367-17.167 4.686-5.183 11.019-9.162 18.999-11.938 7.979-2.776 17.274-4.165 27.889-4.165 10.07 0 19.116 1.312 27.135 3.934 8.018 2.623 14.467 6.557 19.348 11.8 4.881 5.244 7.786 10.952 8.715 17.121.93 6.17 1.395 16.968 1.395 32.392v25.635zm-48.922-49.236c0-6.972-.484-11.43-1.452-13.373-.97-1.943-2.964-2.915-5.985-2.915-2.556 0-4.514.786-5.868 2.359-1.356 1.573-2.033 6.217-2.033 13.929v69.966c0 8.7.444 14.067 1.336 16.104.89 2.036 2.964 3.054 6.217 3.054 3.33 0 5.462-1.171 6.392-3.517.93-2.344 1.395-7.927 1.395-16.751v-68.856zm109.117-38.5h82.854v29.985h-33.932v28.412h30.213v28.505h-30.213v62.933h-48.923V877.344zm185.58 0v149.835h-48.923V877.344h48.923zm170.821 0v149.835h-42.88l-25.449-68.115v68.115h-40.904V877.344h40.904l27.425 67.468v-67.468h40.904zm173.842 55.159h-48.922v-13.604c0-8.575-.465-13.942-1.395-16.103-.93-2.159-3.138-3.239-6.624-3.239-3.021 0-5.074.925-6.158 2.776-1.086 1.851-1.627 6.603-1.627 14.252v71.91c0 6.726.541 11.151 1.627 13.28 1.084 2.129 3.254 3.192 6.507 3.192 3.562 0 5.985-1.203 7.264-3.609 1.277-2.406 1.917-7.094 1.917-14.066v-17.77h-9.878v-22.767h57.289v80.424h-30.743l-4.524-10.735c-3.334 4.627-7.541 8.098-12.617 10.411-5.079 2.314-11.067 3.471-17.967 3.471-8.22 0-15.914-1.589-23.085-4.766-7.172-3.178-12.617-7.11-16.339-11.8-3.723-4.688-6.049-9.609-6.979-14.762-.929-5.151-1.394-12.879-1.394-23.184v-44.516c0-14.312.968-24.71 2.904-31.188 1.936-6.478 7.495-12.416 16.676-17.815 9.18-5.397 21.051-8.098 35.617-8.098 14.331 0 26.222 2.346 35.675 7.033 9.45 4.69 15.609 10.259 18.477 16.705 2.865 6.448 4.299 15.812 4.299 28.089v6.479z"/><path fill="#00AEEF" stroke="#00AEEF" stroke-width="16" stroke-miterlimit="10" d="M14.29 811.9h2070.002"/></svg>