<?xml version="1.0" encoding="utf-8"?>
<!-- Generator: Adobe Illustrator 17.0.0, SVG Export Plug-In . SVG Version: 6.00 Build 0)  -->
<!DOCTYPE svg PUBLIC "-//W3C//DTD SVG 1.1//EN" "http://www.w3.org/Graphics/SVG/1.1/DTD/svg11.dtd">
<svg version="1.1" id="Layer_1" xmlns="http://www.w3.org/2000/svg" xmlns:xlink="http://www.w3.org/1999/xlink" x="0px" y="0px"
	 width="2107.211px" height="1116.875px" viewBox="0 0 2107.211 1116.875" enable-background="new 0 0 2107.211 1116.875"
	 xml:space="preserve">
<linearGradient id="SVGID_1_" gradientUnits="userSpaceOnUse" x1="999.1392" y1="175.522" x2="999.1392" y2="1105.5212">
	<stop  offset="0.0121" style="stop-color:#FFFFFF"/>
	<stop  offset="0.2242" style="stop-color:#9CDAED"/>
	<stop  offset="0.3383" style="stop-color:#99D6EB"/>
	<stop  offset="0.4274" style="stop-color:#91CCE6"/>
	<stop  offset="0.5081" style="stop-color:#82BEDF"/>
	<stop  offset="0.5838" style="stop-color:#6FAAD6"/>
	<stop  offset="0.656" style="stop-color:#5793CA"/>
	<stop  offset="0.7247" style="stop-color:#377BBD"/>
	<stop  offset="0.7697" style="stop-color:#106BB5"/>
</linearGradient>
<path fill="url(#SVGID_1_)" stroke="#000000" stroke-width="7" stroke-miterlimit="10" d="M1318.639,685.602
	c0,236.252-143.043,427.773-319.5,427.773c-176.455,0-319.5-191.521-319.5-427.773c0-42.612,4.653-83.768,13.316-122.608
	C732.327,386.493,980.29,35.522,999.139,6.265c0,0,269.31,382.875,307.365,562.162
	C1314.409,605.664,1318.639,644.972,1318.639,685.602z"/>
<path fill="#00AEEF" stroke="#000000" stroke-width="7" stroke-miterlimit="10" d="M416.29,595.477
	c0,46.875-26.047,83.328-78.125,109.328c-52.094,26.016-121.766,39.016-209.047,39.016c-40.516,0-73.797-2.234-99.828-6.688V690.82
	c25.984,7.344,59.687,11,101.094,11c109.266,0,163.906-35.344,163.906-106.047V341.82h122V595.477z"/>
<path fill="#00AEEF" stroke="#000000" stroke-width="7" stroke-miterlimit="10" d="M759.075,742.062V431.548h252.713
	c76.793,0,137.697,6.559,182.709,19.677c45.012,13.118,67.52,30.204,67.52,51.245c0,17.589-13.633,32.869-40.896,45.84
	s-64.859,22.195-112.771,27.674v0.872c59.779,2.457,107.613,10.379,143.482,23.743c35.871,13.364,53.807,30.744,53.807,52.141
	c0,26.592-27.236,48.125-81.711,64.608c-54.475,16.484-123.17,24.713-206.111,24.713H759.075z M863.426,464.565v99.836h106.569
	c56.987,0,101.8-4.778,134.437-14.334c32.637-9.557,48.955-23.043,48.955-40.435c0-30.044-56.801-45.066-170.388-45.066H863.426z
	 M863.426,597.418v111.628h141.104c61.064,0,108.416-5.048,142.041-15.145c33.625-10.097,50.439-23.939,50.439-41.529
	c0-36.628-71.381-54.954-214.145-54.954H863.426z"/>
<path fill="#00AEEF" stroke="#000000" stroke-width="7" stroke-miterlimit="10" d="M2068.786,736.82h-539v-395h122v353h417V736.82z"
	/>
<g>
	<rect x="7" y="877.258" fill="none" width="2100.211" height="171.111"/>
	<path fill="#00AEEF" stroke="#000000" stroke-width="7" stroke-miterlimit="10" d="M200.946,877.344l-21.783,149.835h-61.08
		c-5.592-23.02-10.527-49.211-14.807-78.573c-1.952,12.59-6.5,38.78-13.645,78.573H28.899L7,877.344h47.528l5.169,52.279
		l4.999,50.541c1.805-26.154,6.313-60.428,13.527-102.82h50.801c0.676,4.382,2.453,20.855,5.336,49.421l5.404,57.009
		c2.781-36.27,7.333-71.746,13.654-106.43H200.946z"/>
	<path fill="#00AEEF" stroke="#000000" stroke-width="7" stroke-miterlimit="10" d="M337.108,877.344l27.977,149.835h-49.997
		l-2.625-26.932h-17.5l-2.941,26.932h-50.578l24.955-149.835H337.108z M311.18,973.687c-2.477-16.972-4.96-37.948-7.452-62.933
		c-4.984,28.691-8.114,49.669-9.389,62.933H311.18z"/>
	<path fill="#00AEEF" stroke="#000000" stroke-width="7" stroke-miterlimit="10" d="M513.885,877.344v29.985h-29.051v119.85h-48.922
		V907.33h-28.935v-29.985H513.885z"/>
	<path fill="#00AEEF" stroke="#000000" stroke-width="7" stroke-miterlimit="10" d="M566.99,877.344h81.576v29.985h-32.653v28.412
		h30.562v28.505h-30.562v32.947h35.907v29.985h-84.83V877.344z"/>
	<path fill="#00AEEF" stroke="#000000" stroke-width="7" stroke-miterlimit="10" d="M707.83,877.344h34.629
		c23.085,0,38.714,0.71,46.889,2.129c8.172,1.42,14.834,5.044,19.987,10.874c5.151,5.831,7.728,15.132,7.728,27.903
		c0,11.661-1.821,19.497-5.461,23.507c-3.643,4.012-10.807,6.418-21.498,7.219c9.683,1.913,16.19,4.475,19.522,7.682
		c3.33,3.209,5.403,6.154,6.217,8.839c0.813,2.684,1.22,10.073,1.22,22.165v39.518h-45.436v-49.791
		c0-8.02-0.795-12.986-2.382-14.899c-1.588-1.912-5.752-2.869-12.492-2.869v67.56H707.83V877.344z M756.752,902.98v33.317
		c5.5,0,9.354-0.602,11.562-1.805c2.208-1.203,3.312-5.104,3.312-11.707v-8.237c0-4.75-1.066-7.866-3.196-9.347
		C766.299,903.72,762.406,902.98,756.752,902.98z"/>
	<path fill="#00AEEF" stroke="#000000" stroke-width="7" stroke-miterlimit="10" d="M877.954,877.344h49.271
		c13.323,0,23.569,0.833,30.736,2.499c7.165,1.666,12.55,4.072,16.153,7.219c3.602,3.146,6.042,6.957,7.321,11.43
		c1.278,4.474,1.917,11.399,1.917,20.776v13.05c0,9.564-1.24,16.535-3.719,20.916c-2.48,4.381-7.03,7.743-13.654,10.087
		c-6.624,2.346-15.281,3.518-25.972,3.518h-13.131v60.341h-48.922V877.344z M926.876,902.98v38.13
		c1.394,0.062,2.594,0.093,3.602,0.093c4.492,0,7.611-0.88,9.354-2.638c1.743-1.759,2.615-5.414,2.615-10.967v-12.31
		c0-5.12-1.008-8.452-3.021-9.995C937.411,903.753,933.227,902.98,926.876,902.98z"/>
	<path fill="#00AEEF" stroke="#000000" stroke-width="7" stroke-miterlimit="10" d="M1039.362,877.344h34.629
		c23.085,0,38.714,0.71,46.89,2.129c8.172,1.42,14.834,5.044,19.986,10.874c5.15,5.831,7.729,15.132,7.729,27.903
		c0,11.661-1.822,19.497-5.463,23.507c-3.643,4.012-10.807,6.418-21.498,7.219c9.684,1.913,16.191,4.475,19.523,7.682
		c3.33,3.209,5.402,6.154,6.217,8.839c0.812,2.684,1.221,10.073,1.221,22.165v39.518h-45.437v-49.791
		c0-8.02-0.795-12.986-2.382-14.899c-1.588-1.912-5.752-2.869-12.492-2.869v67.56h-48.922V877.344z M1088.284,902.98v33.317
		c5.5,0,9.354-0.602,11.562-1.805c2.208-1.203,3.312-5.104,3.312-11.707v-8.237c0-4.75-1.066-7.866-3.196-9.347
		C1097.831,903.72,1093.938,902.98,1088.284,902.98z"/>
	<path fill="#00AEEF" stroke="#000000" stroke-width="7" stroke-miterlimit="10" d="M1321.275,965.08
		c0,15.055-0.446,25.714-1.336,31.976c-0.892,6.263-3.681,11.984-8.367,17.167c-4.688,5.183-11.021,9.162-18.999,11.94
		c-7.98,2.776-17.276,4.164-27.89,4.164c-10.071,0-19.115-1.312-27.134-3.934c-8.018-2.621-14.467-6.555-19.348-11.8
		c-4.881-5.243-7.786-10.95-8.716-17.121c-0.929-6.169-1.394-16.967-1.394-32.392v-25.636c0-15.054,0.444-25.712,1.336-31.976
		c0.89-6.261,3.679-11.984,8.367-17.167c4.686-5.183,11.019-9.162,18.999-11.938c7.979-2.776,17.274-4.165,27.889-4.165
		c10.07,0,19.116,1.312,27.135,3.934c8.018,2.623,14.467,6.557,19.348,11.8c4.881,5.244,7.786,10.952,8.715,17.121
		c0.93,6.17,1.395,16.968,1.395,32.392V965.08z M1272.353,915.844c0-6.972-0.484-11.43-1.452-13.373
		c-0.97-1.943-2.964-2.915-5.985-2.915c-2.556,0-4.514,0.786-5.868,2.359c-1.356,1.573-2.033,6.217-2.033,13.929v69.966
		c0,8.7,0.444,14.067,1.336,16.104c0.89,2.036,2.964,3.054,6.217,3.054c3.33,0,5.462-1.171,6.392-3.517
		c0.93-2.344,1.395-7.927,1.395-16.751V915.844z"/>
	<path fill="#00AEEF" stroke="#000000" stroke-width="7" stroke-miterlimit="10" d="M1493.258,965.08
		c0,15.055-0.446,25.714-1.336,31.976c-0.892,6.263-3.681,11.984-8.367,17.167c-4.688,5.183-11.021,9.162-18.999,11.94
		c-7.98,2.776-17.276,4.164-27.89,4.164c-10.071,0-19.115-1.312-27.134-3.934c-8.018-2.621-14.467-6.555-19.348-11.8
		c-4.881-5.243-7.786-10.95-8.716-17.121c-0.929-6.169-1.394-16.967-1.394-32.392v-25.636c0-15.054,0.444-25.712,1.336-31.976
		c0.89-6.261,3.679-11.984,8.367-17.167c4.686-5.183,11.019-9.162,18.999-11.938c7.979-2.776,17.274-4.165,27.889-4.165
		c10.07,0,19.116,1.312,27.135,3.934c8.018,2.623,14.467,6.557,19.348,11.8c4.881,5.244,7.786,10.952,8.715,17.121
		c0.93,6.17,1.395,16.968,1.395,32.392V965.08z M1444.336,915.844c0-6.972-0.484-11.43-1.452-13.373
		c-0.97-1.943-2.964-2.915-5.985-2.915c-2.556,0-4.514,0.786-5.868,2.359c-1.356,1.573-2.033,6.217-2.033,13.929v69.966
		c0,8.7,0.444,14.067,1.336,16.104c0.89,2.036,2.964,3.054,6.217,3.054c3.33,0,5.462-1.171,6.392-3.517
		c0.93-2.344,1.395-7.927,1.395-16.751V915.844z"/>
	<path fill="#00AEEF" stroke="#000000" stroke-width="7" stroke-miterlimit="10" d="M1553.453,877.344h82.854v29.985h-33.932v28.412
		h30.213v28.505h-30.213v62.933h-48.923V877.344z"/>
	<path fill="#00AEEF" stroke="#000000" stroke-width="7" stroke-miterlimit="10" d="M1739.033,877.344v149.835h-48.923V877.344
		H1739.033z"/>
	<path fill="#00AEEF" stroke="#000000" stroke-width="7" stroke-miterlimit="10" d="M1909.854,877.344v149.835h-42.88
		l-25.449-68.115v68.115h-40.904V877.344h40.904l27.425,67.468v-67.468H1909.854z"/>
	<path fill="#00AEEF" stroke="#000000" stroke-width="7" stroke-miterlimit="10" d="M2083.696,932.503h-48.922v-13.604
		c0-8.575-0.465-13.942-1.395-16.103c-0.93-2.159-3.138-3.239-6.624-3.239c-3.021,0-5.074,0.925-6.158,2.776
		c-1.086,1.851-1.627,6.603-1.627,14.252v71.91c0,6.726,0.541,11.151,1.627,13.28c1.084,2.129,3.254,3.192,6.507,3.192
		c3.562,0,5.985-1.203,7.264-3.609c1.277-2.406,1.917-7.094,1.917-14.066v-17.77h-9.878v-22.767h57.289v80.424h-30.743
		l-4.524-10.735c-3.334,4.627-7.541,8.098-12.617,10.411c-5.079,2.314-11.067,3.471-17.967,3.471c-8.22,0-15.914-1.589-23.085-4.766
		c-7.172-3.178-12.617-7.11-16.339-11.8c-3.723-4.688-6.049-9.609-6.979-14.762c-0.929-5.151-1.394-12.879-1.394-23.184v-44.516
		c0-14.312,0.968-24.71,2.904-31.188c1.936-6.478,7.495-12.416,16.676-17.815c9.18-5.397,21.051-8.098,35.617-8.098
		c14.331,0,26.222,2.346,35.675,7.033c9.45,4.69,15.609,10.259,18.477,16.705c2.865,6.448,4.299,15.812,4.299,28.089V932.503z"/>
</g>
<line fill="#00AEEF" stroke="#00AEEF" stroke-width="16" stroke-miterlimit="10" x1="14.29" y1="811.9" x2="2084.292" y2="811.9"/>
<g display="none">
	<rect x="-994.917" y="1351.015" display="inline" fill="none" width="4402.289" height="982.049"/>
	<path display="inline" fill="#00AEEF" stroke="#000000" stroke-width="7" stroke-miterlimit="10" d="M-920.072,2113.365
		c14.813,2.353,31.966,0,55.355-3.529c39.762-8.236,77.186-32.942,106.032-74.119c33.524-45.883,57.694-112.942,67.05-203.532
		h-2.339c-28.067,51.766-68.609,82.354-119.286,82.354c-91.219,0-149.692-103.531-149.692-234.12
		c0-144.708,69.389-271.768,173.082-271.768c103.692,0,167.624,127.06,167.624,322.356c0,168.237-37.423,285.885-87.32,358.827
		c-38.982,57.648-92.778,92.942-147.354,102.354c-24.949,5.882-46.779,7.059-63.152,5.882V2113.365z M-895.123,1673.36
		c0,95.295,38.203,162.355,97.456,162.355c45.999,0,81.863-34.118,99.795-80.001c3.898-9.412,6.237-21.177,6.237-37.647
		c0-130.59-31.966-230.591-103.693-230.591C-853.802,1487.476-895.123,1565.124-895.123,1673.36z"/>
	<path display="inline" fill="#00AEEF" stroke="#000000" stroke-width="7" stroke-miterlimit="10" d="M-223.075,1795.714
		c0,260.002-63.931,403.534-176.2,403.534c-99.015,0-166.064-140.001-167.624-392.945c0-256.474,73.287-397.651,176.2-397.651
		C-283.888,1408.651-223.075,1552.182-223.075,1795.714z M-498.29,1807.479c0,198.826,40.541,311.768,102.913,311.768
		c70.168,0,103.693-123.531,103.693-318.827c0-188.237-31.966-311.768-102.914-311.768
		C-454.63,1488.652-498.29,1599.242-498.29,1807.479z"/>
	<path display="inline" fill="#00AEEF" stroke="#000000" stroke-width="7" stroke-miterlimit="10" d="M142.572,1508.652H-50.781
		l-19.49,196.473c11.694-2.353,22.609-4.706,41.321-4.706c38.982,0,77.964,12.941,109.15,41.177
		c39.762,34.118,72.507,100.001,72.507,196.473c0,149.413-78.744,261.179-188.675,261.179c-55.354,0-102.134-23.53-126.303-47.06
		l17.152-78.824c21.051,18.824,62.372,42.354,108.371,42.354c64.711,0,120.065-63.53,120.065-165.884
		c-0.779-98.825-44.439-169.414-145.794-169.414c-28.847,0-51.457,4.706-70.168,8.235l32.745-367.062h242.471V1508.652z"/>
	<path display="inline" fill="#00AEEF" stroke="#000000" stroke-width="7" stroke-miterlimit="10" d="M245.478,2125.129
		c0-43.53,19.491-74.118,46.778-74.118c27.288,0,45.999,30.588,45.999,74.118c0,42.354-17.932,74.119-46.778,74.119
		C264.188,2199.248,245.478,2167.483,245.478,2125.129z"/>
	<path display="inline" fill="#00AEEF" stroke="#000000" stroke-width="7" stroke-miterlimit="10" d="M417.77,2067.482
		c19.491,18.824,64.711,48.236,112.269,48.236c88.101,0,115.389-84.707,114.608-148.237
		c-0.779-107.06-64.711-152.943-130.98-152.943h-38.203v-77.648h38.203c49.897,0,113.049-38.824,113.049-129.413
		c0-61.177-25.729-115.295-88.88-115.295c-40.542,0-79.524,27.059-101.354,50.589l-17.932-75.295
		c26.508-29.412,77.965-58.824,132.54-58.824c99.795,0,145.015,89.413,145.015,182.355c0,78.824-31.186,145.884-93.558,180.002
		v2.353c62.372,18.824,113.049,89.413,113.049,196.473c0,122.354-63.151,229.414-184.776,229.414
		c-56.914,0-106.812-27.059-131.761-51.765L417.77,2067.482z"/>
	<path display="inline" fill="#00AEEF" stroke="#000000" stroke-width="7" stroke-miterlimit="10" d="M795.11,1992.187
		c0-96.472,38.203-164.708,100.575-204.708l-0.78-3.53c-56.135-40-80.304-105.883-80.304-171.767
		c0-121.178,67.83-203.531,156.71-203.531c98.235,0,147.353,92.942,147.353,188.237c0,64.707-21.05,134.119-83.422,178.825v3.53
		c63.151,37.647,102.133,104.707,102.133,197.649c0,132.943-75.625,222.355-172.301,222.355
		C859.042,2199.248,795.11,2103.953,795.11,1992.187z M1067.987,1987.481c0-92.942-42.881-137.648-111.489-167.061
		c-59.254,25.883-91.219,84.707-91.219,157.649c-2.339,77.647,36.644,145.884,101.354,145.884
		C1028.226,2123.953,1067.987,2066.305,1067.987,1987.481z M879.312,1605.124c0,76.471,38.203,117.648,96.677,141.178
		c43.66-22.353,77.185-69.412,77.185-138.825c0-61.177-24.169-124.708-85.761-124.708
		C910.498,1482.77,879.312,1539.241,879.312,1605.124z"/>
	<path display="inline" fill="#00AEEF" stroke="#000000" stroke-width="7" stroke-miterlimit="10" d="M1538.106,1795.714
		c0,260.002-63.93,403.534-176.199,403.534c-99.016,0-166.064-140.001-167.625-392.945c0-256.474,73.287-397.651,176.201-397.651
		C1477.293,1408.651,1538.106,1552.182,1538.106,1795.714z M1262.891,1807.479c0,198.826,40.541,311.768,102.914,311.768
		c70.168,0,103.693-123.531,103.693-318.827c0-188.237-31.967-311.768-102.914-311.768
		C1306.551,1488.652,1262.891,1599.242,1262.891,1807.479z"/>
	<path display="inline" fill="#00AEEF" stroke="#000000" stroke-width="7" stroke-miterlimit="10" d="M1606.708,2125.129
		c0-43.53,19.492-74.118,46.779-74.118s45.998,30.588,45.998,74.118c0,42.354-17.932,74.119-46.777,74.119
		C1625.418,2199.248,1606.708,2167.483,1606.708,2125.129z"/>
	<path display="inline" fill="#00AEEF" stroke="#000000" stroke-width="7" stroke-miterlimit="10" d="M1762.627,2186.307v-63.53
		l53.795-78.824c129.422-185.884,187.896-284.709,188.676-400.004c0-77.648-24.949-149.413-100.574-149.413
		c-46,0-84.203,35.294-107.592,64.707l-21.83-72.942c35.084-44.707,84.98-77.648,143.455-77.648
		c109.15,0,155.15,112.942,155.15,222.355c0,141.178-67.83,255.296-174.643,410.592l-40.541,56.471v2.353h227.656v85.883H1762.627z"
		/>
	<path display="inline" fill="#00AEEF" stroke="#000000" stroke-width="7" stroke-miterlimit="10" d="M2156.34,1992.187
		c0-96.472,38.203-164.708,100.576-204.708l-0.781-3.53c-56.135-40-80.303-105.883-80.303-171.767
		c0-121.178,67.83-203.531,156.709-203.531c98.236,0,147.354,92.942,147.354,188.237c0,64.707-21.051,134.119-83.422,178.825v3.53
		c63.15,37.647,102.133,104.707,102.133,197.649c0,132.943-75.625,222.355-172.301,222.355
		C2220.272,2199.248,2156.34,2103.953,2156.34,1992.187z M2429.217,1987.481c0-92.942-42.881-137.648-111.488-167.061
		c-59.254,25.883-91.219,84.707-91.219,157.649c-2.34,77.647,36.643,145.884,101.354,145.884
		C2389.456,2123.953,2429.217,2066.305,2429.217,1987.481z M2240.543,1605.124c0,76.471,38.203,117.648,96.676,141.178
		c43.66-22.353,77.186-69.412,77.186-138.825c0-61.177-24.17-124.708-85.762-124.708
		C2271.729,1482.77,2240.543,1539.241,2240.543,1605.124z"/>
	<path display="inline" fill="#00AEEF" stroke="#000000" stroke-width="7" stroke-miterlimit="10" d="M2865.034,1508.652H2671.68
		l-19.49,196.473c11.693-2.353,22.609-4.706,41.32-4.706c38.982,0,77.965,12.941,109.15,41.177
		c39.762,34.118,72.508,100.001,72.508,196.473c0,149.413-78.744,261.179-188.676,261.179c-55.354,0-102.133-23.53-126.303-47.06
		l17.152-78.824c21.051,18.824,62.373,42.354,108.371,42.354c64.711,0,120.066-63.53,120.066-165.884
		c-0.779-98.825-44.439-169.414-145.795-169.414c-28.846,0-51.457,4.706-70.168,8.235l32.746-367.062h242.471V1508.652z"/>
	<path display="inline" fill="#00AEEF" stroke="#000000" stroke-width="7" stroke-miterlimit="10" d="M3174.545,2186.307v-208.237
		H2939.09v-68.236l226.1-488.24h74.066v475.299h70.947v81.178h-70.947v208.237H3174.545z M3174.545,1896.892v-255.297
		c0-40,0.779-80,2.338-120.001h-2.338c-15.594,44.706-28.068,77.648-42.102,112.942l-123.965,260.003v2.353H3174.545z"/>
</g>
<g>
</g>
<g>
</g>
<g>
</g>
<g>
</g>
<g>
</g>
<g>
</g>
</svg>
